<svg width="304" height="31" viewBox="0 0 304 31" fill="none" xmlns="http://www.w3.org/2000/svg">
<path d="M19.5623 22.5395H15.2035L5.33391 7.62617V22.5395H0.975098V0.776611H5.33391L15.2035 15.7211V0.776611H19.5623V22.5395Z" fill="url(#paint0_linear_21_838)"/>
<path d="M40.1531 5.2911V22.5395H35.7631V20.3601C35.2027 21.1074 34.4659 21.6989 33.5526 22.1348C32.6601 22.5499 31.6845 22.7575 30.626 22.7575C29.2768 22.7575 28.0833 22.4773 27.0455 21.9168C26.0077 21.3357 25.1878 20.495 24.5859 19.395C24.0047 18.2741 23.7141 16.9457 23.7141 15.4098V5.2911H28.0729V14.7871C28.0729 16.157 28.4154 17.2156 29.1004 17.9628C29.7853 18.6892 30.7194 19.0525 31.9025 19.0525C33.1063 19.0525 34.0507 18.6892 34.7357 17.9628C35.4207 17.2156 35.7631 16.157 35.7631 14.7871V5.2911H40.1531Z" fill="url(#paint1_linear_21_838)"/>
<path d="M60.488 13.5417C60.488 14.1644 60.4464 14.7248 60.3634 15.223H47.754C47.8578 16.4683 48.2937 17.4439 49.0616 18.1496C49.8296 18.8553 50.774 19.2082 51.8949 19.2082C53.5139 19.2082 54.6658 18.5128 55.3508 17.1222H60.0521C59.5539 18.7827 58.5991 20.1526 57.1877 21.2319C55.7763 22.2905 54.0431 22.8197 51.9883 22.8197C50.3278 22.8197 48.8333 22.4565 47.5049 21.73C46.1973 20.9828 45.1698 19.9346 44.4226 18.5855C43.6961 17.2363 43.3329 15.6796 43.3329 13.9153C43.3329 12.1303 43.6961 10.5632 44.4226 9.21402C45.1491 7.86487 46.1661 6.82706 47.4738 6.10059C48.7814 5.37412 50.2863 5.01089 51.9883 5.01089C53.628 5.01089 55.0913 5.36374 56.3782 6.06945C57.6859 6.77517 58.6925 7.78184 59.3982 9.08949C60.1247 10.3764 60.488 11.8604 60.488 13.5417ZM55.9735 12.2963C55.9527 11.1755 55.548 10.283 54.7592 9.61877C53.9705 8.93382 53.0053 8.59134 51.8637 8.59134C50.7844 8.59134 49.8711 8.92344 49.1239 9.58764C48.3974 10.2311 47.9512 11.134 47.7851 12.2963H55.9735Z" fill="url(#paint2_linear_21_838)"/>
<path d="M70.27 22.8197C68.8586 22.8197 67.5924 22.5707 66.4716 22.0725C65.3507 21.5536 64.4582 20.8583 63.794 19.9865C63.1506 19.1148 62.7977 18.1496 62.7355 17.091H67.1254C67.2084 17.7552 67.5302 18.3053 68.0906 18.7411C68.6717 19.177 69.3878 19.395 70.2388 19.395C71.0691 19.395 71.7125 19.2289 72.1692 18.8968C72.6466 18.5647 72.8853 18.1392 72.8853 17.6203C72.8853 17.0599 72.5947 16.6448 72.0135 16.3749C71.4531 16.0843 70.5502 15.773 69.3048 15.4409C68.0179 15.1296 66.9594 14.8078 66.1291 14.4757C65.3196 14.1436 64.6139 13.6351 64.012 12.9501C63.4308 12.2652 63.1402 11.3415 63.1402 10.1792C63.1402 9.2244 63.41 8.35264 63.9497 7.5639C64.5101 6.77517 65.2989 6.15248 66.3159 5.69584C67.3537 5.2392 68.568 5.01089 69.9586 5.01089C72.0135 5.01089 73.6533 5.52979 74.8779 6.5676C76.1025 7.58466 76.7771 8.96495 76.9016 10.7085H72.7296C72.6673 10.0235 72.3767 9.48386 71.8578 9.08949C71.3597 8.67436 70.6851 8.4668 69.8341 8.4668C69.0454 8.4668 68.4331 8.61209 67.9972 8.90268C67.582 9.19327 67.3745 9.59802 67.3745 10.1169C67.3745 10.6981 67.6651 11.1444 68.2462 11.4557C68.8274 11.7463 69.7303 12.0473 70.9549 12.3586C72.2003 12.6699 73.2277 12.9917 74.0372 13.3238C74.8467 13.6559 75.5421 14.1748 76.1232 14.8805C76.7252 15.5654 77.0365 16.4787 77.0573 17.6203C77.0573 18.6166 76.7771 19.5091 76.2166 20.2979C75.677 21.0866 74.8882 21.7093 73.8504 22.1659C72.8334 22.6018 71.6399 22.8197 70.27 22.8197Z" fill="url(#paint3_linear_21_838)"/>
<path d="M85.7102 8.87155V17.2156C85.7102 17.7967 85.8451 18.2222 86.1149 18.4921C86.4055 18.7411 86.8829 18.8657 87.5471 18.8657H89.5709V22.5395H86.831C83.1572 22.5395 81.3203 20.7545 81.3203 17.1844V8.87155H79.2654V5.2911H81.3203V1.02569H85.7102V5.2911H89.5709V8.87155H85.7102Z" fill="url(#paint4_linear_21_838)"/>
<path d="M97.0648 7.96865C97.6252 7.05538 98.3516 6.33929 99.2442 5.82038C100.157 5.30147 101.195 5.04202 102.358 5.04202V9.61877H101.206C99.8357 9.61877 98.7979 9.94049 98.0922 10.5839C97.4072 11.2274 97.0648 12.3482 97.0648 13.9464V22.5395H92.7059V5.2911H97.0648V7.96865Z" fill="url(#paint5_linear_21_838)"/>
<path d="M112.953 22.8197C111.292 22.8197 109.798 22.4565 108.469 21.73C107.141 20.9828 106.093 19.9346 105.325 18.5855C104.577 17.2363 104.204 15.6796 104.204 13.9153C104.204 12.151 104.588 10.5943 105.356 9.24516C106.144 7.896 107.213 6.85819 108.563 6.13172C109.912 5.3845 111.417 5.01089 113.077 5.01089C114.738 5.01089 116.242 5.3845 117.592 6.13172C118.941 6.85819 119.999 7.896 120.767 9.24516C121.556 10.5943 121.95 12.151 121.95 13.9153C121.95 15.6796 121.546 17.2363 120.736 18.5855C119.947 19.9346 118.868 20.9828 117.498 21.73C116.149 22.4565 114.634 22.8197 112.953 22.8197ZM112.953 19.0214C113.741 19.0214 114.478 18.8345 115.163 18.4609C115.869 18.0666 116.429 17.4854 116.844 16.7174C117.259 15.9494 117.467 15.0154 117.467 13.9153C117.467 12.2756 117.031 11.0198 116.159 10.1481C115.308 9.25554 114.26 8.80928 113.015 8.80928C111.769 8.80928 110.721 9.25554 109.87 10.1481C109.04 11.0198 108.625 12.2756 108.625 13.9153C108.625 15.5551 109.03 16.8212 109.839 17.7137C110.669 18.5855 111.707 19.0214 112.953 19.0214Z" fill="url(#paint6_linear_21_838)"/>
<path d="M131.748 22.8197C130.337 22.8197 129.071 22.5707 127.95 22.0725C126.829 21.5536 125.936 20.8583 125.272 19.9865C124.629 19.1148 124.276 18.1496 124.214 17.091H128.604C128.687 17.7552 129.008 18.3053 129.569 18.7411C130.15 19.177 130.866 19.395 131.717 19.395C132.547 19.395 133.191 19.2289 133.647 18.8968C134.125 18.5647 134.363 18.1392 134.363 17.6203C134.363 17.0599 134.073 16.6448 133.492 16.3749C132.931 16.0843 132.028 15.773 130.783 15.4409C129.496 15.1296 128.438 14.8078 127.607 14.4757C126.798 14.1436 126.092 13.6351 125.49 12.9501C124.909 12.2652 124.618 11.3415 124.618 10.1792C124.618 9.2244 124.888 8.35264 125.428 7.5639C125.988 6.77517 126.777 6.15248 127.794 5.69584C128.832 5.2392 130.046 5.01089 131.437 5.01089C133.492 5.01089 135.131 5.52979 136.356 6.5676C137.581 7.58466 138.255 8.96495 138.38 10.7085H134.208C134.146 10.0235 133.855 9.48386 133.336 9.08949C132.838 8.67436 132.163 8.4668 131.312 8.4668C130.524 8.4668 129.911 8.61209 129.475 8.90268C129.06 9.19327 128.853 9.59802 128.853 10.1169C128.853 10.6981 129.143 11.1444 129.724 11.4557C130.306 11.7463 131.209 12.0473 132.433 12.3586C133.679 12.6699 134.706 12.9917 135.515 13.3238C136.325 13.6559 137.02 14.1748 137.601 14.8805C138.203 15.5654 138.515 16.4787 138.535 17.6203C138.535 18.6166 138.255 19.5091 137.695 20.2979C137.155 21.0866 136.366 21.7093 135.329 22.1659C134.312 22.6018 133.118 22.8197 131.748 22.8197Z" fill="url(#paint7_linear_21_838)"/>
<path d="M165.38 7.53277C165.38 8.69512 165.099 9.78482 164.539 10.8019C163.999 11.8189 163.138 12.6388 161.955 13.2615C160.792 13.8842 159.319 14.1955 157.534 14.1955H153.891V22.5395H149.532V0.807747H157.534C159.215 0.807747 160.647 1.09833 161.83 1.67951C163.013 2.26068 163.896 3.0598 164.477 4.07685C165.079 5.09391 165.38 6.24588 165.38 7.53277ZM157.347 10.6773C158.551 10.6773 159.443 10.4075 160.025 9.86785C160.606 9.30743 160.896 8.52907 160.896 7.53277C160.896 5.41563 159.713 4.35706 157.347 4.35706H153.891V10.6773H157.347Z" fill="url(#paint8_linear_21_838)"/>
<path d="M172.833 7.96865C173.394 7.05538 174.12 6.33929 175.013 5.82038C175.926 5.30147 176.964 5.04202 178.126 5.04202V9.61877H176.974C175.604 9.61877 174.566 9.94049 173.861 10.5839C173.176 11.2274 172.833 12.3482 172.833 13.9464V22.5395H168.474V5.2911H172.833V7.96865Z" fill="url(#paint9_linear_21_838)"/>
<path d="M188.721 22.8197C187.06 22.8197 185.566 22.4565 184.238 21.73C182.909 20.9828 181.861 19.9346 181.093 18.5855C180.346 17.2363 179.972 15.6796 179.972 13.9153C179.972 12.151 180.356 10.5943 181.124 9.24516C181.913 7.896 182.982 6.85819 184.331 6.13172C185.68 5.3845 187.185 5.01089 188.845 5.01089C190.506 5.01089 192.011 5.3845 193.36 6.13172C194.709 6.85819 195.768 7.896 196.536 9.24516C197.324 10.5943 197.719 12.151 197.719 13.9153C197.719 15.6796 197.314 17.2363 196.505 18.5855C195.716 19.9346 194.636 20.9828 193.267 21.73C191.917 22.4565 190.402 22.8197 188.721 22.8197ZM188.721 19.0214C189.51 19.0214 190.246 18.8345 190.931 18.4609C191.637 18.0666 192.198 17.4854 192.613 16.7174C193.028 15.9494 193.235 15.0154 193.235 13.9153C193.235 12.2756 192.8 11.0198 191.928 10.1481C191.077 9.25554 190.029 8.80928 188.783 8.80928C187.538 8.80928 186.49 9.25554 185.639 10.1481C184.808 11.0198 184.393 12.2756 184.393 13.9153C184.393 15.5551 184.798 16.8212 185.607 17.7137C186.438 18.5855 187.476 19.0214 188.721 19.0214Z" fill="url(#paint10_linear_21_838)"/>
<path d="M217.417 5.2911L206.738 30.6967H202.099L205.835 22.1037L198.923 5.2911H203.812L208.264 17.3401L212.778 5.2911H217.417Z" fill="url(#paint11_linear_21_838)"/>
<path d="M235.801 13.5417C235.801 14.1644 235.76 14.7248 235.677 15.223H223.067C223.171 16.4683 223.607 17.4439 224.375 18.1496C225.143 18.8553 226.087 19.2082 227.208 19.2082C228.827 19.2082 229.979 18.5128 230.664 17.1222H235.365C234.867 18.7827 233.912 20.1526 232.501 21.2319C231.09 22.2905 229.356 22.8197 227.301 22.8197C225.641 22.8197 224.147 22.4565 222.818 21.73C221.511 20.9828 220.483 19.9346 219.736 18.5855C219.009 17.2363 218.646 15.6796 218.646 13.9153C218.646 12.1303 219.009 10.5632 219.736 9.21402C220.462 7.86487 221.479 6.82706 222.787 6.10059C224.095 5.37412 225.599 5.01089 227.301 5.01089C228.941 5.01089 230.405 5.36374 231.691 6.06945C232.999 6.77517 234.006 7.78184 234.711 9.08949C235.438 10.3764 235.801 11.8604 235.801 13.5417ZM231.287 12.2963C231.266 11.1755 230.861 10.283 230.072 9.61877C229.284 8.93382 228.319 8.59134 227.177 8.59134C226.098 8.59134 225.184 8.92344 224.437 9.58764C223.711 10.2311 223.264 11.134 223.098 12.2963H231.287Z" fill="url(#paint12_linear_21_838)"/>
<path d="M237.862 13.9153C237.862 12.1303 238.225 10.5736 238.952 9.24516C239.678 7.896 240.685 6.85819 241.972 6.13172C243.259 5.3845 244.732 5.01089 246.393 5.01089C248.531 5.01089 250.295 5.55055 251.686 6.62987C253.097 7.68844 254.041 9.18289 254.519 11.1132H249.817C249.568 10.366 249.143 9.78482 248.541 9.3697C247.96 8.93382 247.233 8.71587 246.362 8.71587C245.116 8.71587 244.13 9.17251 243.404 10.0858C242.677 10.9783 242.314 12.2548 242.314 13.9153C242.314 15.5551 242.677 16.8316 243.404 17.7448C244.13 18.6374 245.116 19.0836 246.362 19.0836C248.126 19.0836 249.278 18.2949 249.817 16.7174H254.519C254.041 18.5855 253.097 20.0695 251.686 21.1696C250.274 22.2697 248.51 22.8197 246.393 22.8197C244.732 22.8197 243.259 22.4565 241.972 21.73C240.685 20.9828 239.678 19.945 238.952 18.6166C238.225 17.2674 237.862 15.7004 237.862 13.9153Z" fill="url(#paint13_linear_21_838)"/>
<path d="M262.787 8.87155V17.2156C262.787 17.7967 262.922 18.2222 263.192 18.4921C263.482 18.7411 263.96 18.8657 264.624 18.8657H266.648V22.5395H263.908C260.234 22.5395 258.397 20.7545 258.397 17.1844V8.87155H256.342V5.2911H258.397V1.02569H262.787V5.2911H266.648V8.87155H262.787Z" fill="url(#paint14_linear_21_838)"/>
<path d="M277.442 22.8197C275.781 22.8197 274.287 22.4565 272.958 21.73C271.63 20.9828 270.582 19.9346 269.814 18.5855C269.067 17.2363 268.693 15.6796 268.693 13.9153C268.693 12.151 269.077 10.5943 269.845 9.24516C270.634 7.896 271.703 6.85819 273.052 6.13172C274.401 5.3845 275.906 5.01089 277.566 5.01089C279.227 5.01089 280.732 5.3845 282.081 6.13172C283.43 6.85819 284.488 7.896 285.256 9.24516C286.045 10.5943 286.44 12.151 286.44 13.9153C286.44 15.6796 286.035 17.2363 285.225 18.5855C284.437 19.9346 283.357 20.9828 281.987 21.73C280.638 22.4565 279.123 22.8197 277.442 22.8197ZM277.442 19.0214C278.23 19.0214 278.967 18.8345 279.652 18.4609C280.358 18.0666 280.918 17.4854 281.333 16.7174C281.749 15.9494 281.956 15.0154 281.956 13.9153C281.956 12.2756 281.52 11.0198 280.649 10.1481C279.798 9.25554 278.749 8.80928 277.504 8.80928C276.259 8.80928 275.21 9.25554 274.359 10.1481C273.529 11.0198 273.114 12.2756 273.114 13.9153C273.114 15.5551 273.519 16.8212 274.328 17.7137C275.159 18.5855 276.196 19.0214 277.442 19.0214Z" fill="url(#paint15_linear_21_838)"/>
<path d="M296.237 22.8197C294.826 22.8197 293.56 22.5707 292.439 22.0725C291.318 21.5536 290.426 20.8583 289.761 19.9865C289.118 19.1148 288.765 18.1496 288.703 17.091H293.093C293.176 17.7552 293.498 18.3053 294.058 18.7411C294.639 19.177 295.355 19.395 296.206 19.395C297.036 19.395 297.68 19.2289 298.137 18.8968C298.614 18.5647 298.853 18.1392 298.853 17.6203C298.853 17.0599 298.562 16.6448 297.981 16.3749C297.42 16.0843 296.518 15.773 295.272 15.4409C293.985 15.1296 292.927 14.8078 292.096 14.4757C291.287 14.1436 290.581 13.6351 289.979 12.9501C289.398 12.2652 289.108 11.3415 289.108 10.1792C289.108 9.2244 289.377 8.35264 289.917 7.5639C290.478 6.77517 291.266 6.15248 292.283 5.69584C293.321 5.2392 294.535 5.01089 295.926 5.01089C297.981 5.01089 299.621 5.52979 300.845 6.5676C302.07 7.58466 302.744 8.96495 302.869 10.7085H298.697C298.635 10.0235 298.344 9.48386 297.825 9.08949C297.327 8.67436 296.652 8.4668 295.801 8.4668C295.013 8.4668 294.4 8.61209 293.965 8.90268C293.549 9.19327 293.342 9.59802 293.342 10.1169C293.342 10.6981 293.632 11.1444 294.214 11.4557C294.795 11.7463 295.698 12.0473 296.922 12.3586C298.168 12.6699 299.195 12.9917 300.005 13.3238C300.814 13.6559 301.509 14.1748 302.091 14.8805C302.693 15.5654 303.004 16.4787 303.025 17.6203C303.025 18.6166 302.744 19.5091 302.184 20.2979C301.644 21.0866 300.856 21.7093 299.818 22.1659C298.801 22.6018 297.607 22.8197 296.237 22.8197Z" fill="url(#paint16_linear_21_838)"/>
<defs>
<linearGradient id="paint0_linear_21_838" x1="0.975098" y1="15.7367" x2="303.025" y2="15.7367" gradientUnits="userSpaceOnUse">
<stop stop-color="white"/>
<stop offset="1" stop-color="#999999"/>
</linearGradient>
<linearGradient id="paint1_linear_21_838" x1="0.975098" y1="15.7367" x2="303.025" y2="15.7367" gradientUnits="userSpaceOnUse">
<stop stop-color="white"/>
<stop offset="1" stop-color="#999999"/>
</linearGradient>
<linearGradient id="paint2_linear_21_838" x1="0.975098" y1="15.7367" x2="303.025" y2="15.7367" gradientUnits="userSpaceOnUse">
<stop stop-color="white"/>
<stop offset="1" stop-color="#999999"/>
</linearGradient>
<linearGradient id="paint3_linear_21_838" x1="0.975098" y1="15.7367" x2="303.025" y2="15.7367" gradientUnits="userSpaceOnUse">
<stop stop-color="white"/>
<stop offset="1" stop-color="#999999"/>
</linearGradient>
<linearGradient id="paint4_linear_21_838" x1="0.975098" y1="15.7367" x2="303.025" y2="15.7367" gradientUnits="userSpaceOnUse">
<stop stop-color="white"/>
<stop offset="1" stop-color="#999999"/>
</linearGradient>
<linearGradient id="paint5_linear_21_838" x1="0.975098" y1="15.7367" x2="303.025" y2="15.7367" gradientUnits="userSpaceOnUse">
<stop stop-color="white"/>
<stop offset="1" stop-color="#999999"/>
</linearGradient>
<linearGradient id="paint6_linear_21_838" x1="0.975098" y1="15.7367" x2="303.025" y2="15.7367" gradientUnits="userSpaceOnUse">
<stop stop-color="white"/>
<stop offset="1" stop-color="#999999"/>
</linearGradient>
<linearGradient id="paint7_linear_21_838" x1="0.975098" y1="15.7367" x2="303.025" y2="15.7367" gradientUnits="userSpaceOnUse">
<stop stop-color="white"/>
<stop offset="1" stop-color="#999999"/>
</linearGradient>
<linearGradient id="paint8_linear_21_838" x1="0.975098" y1="15.7367" x2="303.025" y2="15.7367" gradientUnits="userSpaceOnUse">
<stop stop-color="white"/>
<stop offset="1" stop-color="#999999"/>
</linearGradient>
<linearGradient id="paint9_linear_21_838" x1="0.975098" y1="15.7367" x2="303.025" y2="15.7367" gradientUnits="userSpaceOnUse">
<stop stop-color="white"/>
<stop offset="1" stop-color="#999999"/>
</linearGradient>
<linearGradient id="paint10_linear_21_838" x1="0.975098" y1="15.7367" x2="303.025" y2="15.7367" gradientUnits="userSpaceOnUse">
<stop stop-color="white"/>
<stop offset="1" stop-color="#999999"/>
</linearGradient>
<linearGradient id="paint11_linear_21_838" x1="0.975098" y1="15.7367" x2="303.025" y2="15.7367" gradientUnits="userSpaceOnUse">
<stop stop-color="white"/>
<stop offset="1" stop-color="#999999"/>
</linearGradient>
<linearGradient id="paint12_linear_21_838" x1="0.975098" y1="15.7367" x2="303.025" y2="15.7367" gradientUnits="userSpaceOnUse">
<stop stop-color="white"/>
<stop offset="1" stop-color="#999999"/>
</linearGradient>
<linearGradient id="paint13_linear_21_838" x1="0.975098" y1="15.7367" x2="303.025" y2="15.7367" gradientUnits="userSpaceOnUse">
<stop stop-color="white"/>
<stop offset="1" stop-color="#999999"/>
</linearGradient>
<linearGradient id="paint14_linear_21_838" x1="0.975098" y1="15.7367" x2="303.025" y2="15.7367" gradientUnits="userSpaceOnUse">
<stop stop-color="white"/>
<stop offset="1" stop-color="#999999"/>
</linearGradient>
<linearGradient id="paint15_linear_21_838" x1="0.975098" y1="15.7367" x2="303.025" y2="15.7367" gradientUnits="userSpaceOnUse">
<stop stop-color="white"/>
<stop offset="1" stop-color="#999999"/>
</linearGradient>
<linearGradient id="paint16_linear_21_838" x1="0.975098" y1="15.7367" x2="303.025" y2="15.7367" gradientUnits="userSpaceOnUse">
<stop stop-color="white"/>
<stop offset="1" stop-color="#999999"/>
</linearGradient>
</defs>
</svg>
