<svg width="216" height="35" viewBox="0 0 216 35" fill="none" xmlns="http://www.w3.org/2000/svg">
<path d="M20.4752 25.5407H15.7001L4.88772 9.20282V25.5407H0.112549V1.69898H4.88772L15.7001 18.071V1.69898H20.4752V25.5407Z" fill="url(#paint0_linear_21_1031)"/>
<path d="M43.0329 6.64469V25.5407H38.2236V23.1531C37.6096 23.9717 36.8024 24.6198 35.8019 25.0973C34.8241 25.5521 33.7554 25.7795 32.5957 25.7795C31.1177 25.7795 29.8102 25.4725 28.6733 24.8586C27.5363 24.2219 26.6381 23.3009 25.9787 22.0958C25.342 20.8679 25.0237 19.4126 25.0237 17.7299V6.64469H29.7988V17.0477C29.7988 18.5485 30.174 19.7082 30.9244 20.5268C31.6748 21.3227 32.698 21.7206 33.9942 21.7206C35.313 21.7206 36.3476 21.3227 37.098 20.5268C37.8484 19.7082 38.2236 18.5485 38.2236 17.0477V6.64469H43.0329Z" fill="url(#paint1_linear_21_1031)"/>
<path d="M65.3102 15.6834C65.3102 16.3656 65.2647 16.9795 65.1737 17.5253H51.3598C51.4735 18.8896 51.9511 19.9583 52.7924 20.7315C53.6337 21.5046 54.6684 21.8911 55.8963 21.8911C57.6699 21.8911 58.9319 21.1294 59.6823 19.6059H64.8327C64.2869 21.425 63.2409 22.9258 61.6947 24.1082C60.1484 25.2679 58.2497 25.8477 55.9986 25.8477C54.1795 25.8477 52.5423 25.4498 51.087 24.6539C49.6544 23.8353 48.5289 22.687 47.7103 21.209C46.9144 19.7309 46.5165 18.0255 46.5165 16.0927C46.5165 14.1372 46.9144 12.4204 47.7103 10.9423C48.5061 9.46432 49.6203 8.32737 51.0529 7.53151C52.4854 6.73565 54.134 6.33772 55.9986 6.33772C57.795 6.33772 59.3981 6.72428 60.8079 7.4974C62.2404 8.27053 63.3433 9.37336 64.1164 10.8059C64.9122 12.2157 65.3102 13.8416 65.3102 15.6834ZM60.3645 14.3191C60.3417 13.0912 59.8983 12.1134 59.0342 11.3858C58.1702 10.6354 57.1128 10.2602 55.8622 10.2602C54.6797 10.2602 53.6792 10.624 52.8606 11.3516C52.0648 12.0566 51.5759 13.0457 51.394 14.3191H60.3645Z" fill="url(#paint2_linear_21_1031)"/>
<path d="M76.0266 25.8477C74.4804 25.8477 73.0933 25.5748 71.8654 25.0291C70.6375 24.4606 69.6597 23.6989 68.9321 22.7438C68.2271 21.7888 67.8406 20.7315 67.7724 19.5718H72.5817C72.6726 20.2994 73.0251 20.902 73.639 21.3795C74.2757 21.857 75.0602 22.0958 75.9925 22.0958C76.902 22.0958 77.6069 21.9139 78.1072 21.5501C78.6302 21.1862 78.8917 20.7201 78.8917 20.1516C78.8917 19.5377 78.5734 19.0829 77.9367 18.7873C77.3227 18.4689 76.3336 18.1278 74.9692 17.764C73.5594 17.4229 72.3997 17.0705 71.4902 16.7067C70.6034 16.3428 69.8302 15.7857 69.1708 15.0354C68.5341 14.285 68.2158 13.2731 68.2158 11.9997C68.2158 10.9537 68.5114 9.99868 69.1026 9.1346C69.7166 8.27052 70.5806 7.58836 71.6948 7.0881C72.8318 6.58785 74.162 6.33772 75.6855 6.33772C77.9367 6.33772 79.733 6.90619 81.0746 8.04314C82.4162 9.15734 83.1553 10.6695 83.2917 12.5796H78.7212C78.6529 11.8292 78.3346 11.238 77.7661 10.8059C77.2204 10.3511 76.4814 10.1237 75.5491 10.1237C74.685 10.1237 74.0142 10.2829 73.5367 10.6013C73.0819 10.9196 72.8545 11.363 72.8545 11.9315C72.8545 12.5682 73.1729 13.0571 73.8095 13.3982C74.4462 13.7165 75.4354 14.0462 76.777 14.3873C78.1413 14.7284 79.2669 15.0808 80.1537 15.4447C81.0405 15.8085 81.8023 16.3769 82.439 17.1501C83.0984 17.9005 83.4395 18.901 83.4622 20.1516C83.4622 21.2431 83.1553 22.2208 82.5413 23.0849C81.9501 23.949 81.086 24.6312 79.9491 25.1314C78.8349 25.6089 77.5274 25.8477 76.0266 25.8477Z" fill="url(#paint3_linear_21_1031)"/>
<path d="M92.9417 10.5672V19.7082C92.9417 20.3449 93.0895 20.811 93.3851 21.1066C93.7034 21.3795 94.2264 21.5159 94.9541 21.5159H97.1711V25.5407H94.1696C90.1448 25.5407 88.1324 23.5852 88.1324 19.6741V10.5672H85.8812V6.64469H88.1324V1.97185H92.9417V6.64469H97.1711V10.5672H92.9417Z" fill="url(#paint4_linear_21_1031)"/>
<path d="M105.381 9.57801C105.995 8.5775 106.791 7.79301 107.768 7.22454C108.769 6.65606 109.906 6.37183 111.179 6.37183V11.3858H109.917C108.416 11.3858 107.28 11.7382 106.506 12.4431C105.756 13.148 105.381 14.3759 105.381 16.1268V25.5407H100.606V6.64469H105.381V9.57801Z" fill="url(#paint5_linear_21_1031)"/>
<path d="M122.786 25.8477C120.967 25.8477 119.33 25.4498 117.875 24.6539C116.419 23.8353 115.271 22.687 114.43 21.209C113.611 19.7309 113.202 18.0255 113.202 16.0927C113.202 14.1599 113.622 12.4545 114.464 10.9765C115.328 9.49843 116.499 8.36148 117.977 7.56562C119.455 6.74702 121.104 6.33772 122.923 6.33772C124.742 6.33772 126.39 6.74702 127.868 7.56562C129.346 8.36148 130.506 9.49843 131.347 10.9765C132.212 12.4545 132.644 14.1599 132.644 16.0927C132.644 18.0255 132.2 19.7309 131.313 21.209C130.449 22.687 129.267 23.8353 127.766 24.6539C126.288 25.4498 124.628 25.8477 122.786 25.8477ZM122.786 21.6865C123.65 21.6865 124.458 21.4818 125.208 21.0725C125.981 20.6405 126.595 20.0038 127.05 19.1625C127.505 18.3211 127.732 17.2979 127.732 16.0927C127.732 14.2963 127.254 12.9206 126.299 11.9656C125.367 10.9878 124.219 10.4989 122.854 10.4989C121.49 10.4989 120.342 10.9878 119.41 11.9656C118.5 12.9206 118.045 14.2963 118.045 16.0927C118.045 17.8891 118.489 19.2762 119.375 20.2539C120.285 21.209 121.422 21.6865 122.786 21.6865Z" fill="url(#paint6_linear_21_1031)"/>
<path d="M157.781 13.3299C159.122 13.5801 160.225 14.2509 161.089 15.3423C161.953 16.4338 162.385 17.6844 162.385 19.0943C162.385 20.3676 162.067 21.4932 161.43 22.471C160.816 23.426 159.918 24.1764 158.736 24.7221C157.553 25.2679 156.155 25.5407 154.54 25.5407H144.274V1.73309H154.097C155.711 1.73309 157.098 1.99459 158.258 2.51758C159.441 3.04058 160.327 3.76822 160.919 4.70052C161.533 5.63281 161.84 6.69017 161.84 7.8726C161.84 9.25967 161.464 10.4194 160.714 11.3516C159.986 12.2839 159.009 12.9434 157.781 13.3299ZM149.049 11.5563H153.415C154.552 11.5563 155.427 11.3062 156.041 10.8059C156.655 10.2829 156.962 9.54391 156.962 8.58887C156.962 7.63384 156.655 6.89482 156.041 6.37183C155.427 5.84883 154.552 5.58733 153.415 5.58733H149.049V11.5563ZM153.858 21.6524C155.018 21.6524 155.916 21.3795 156.553 20.8338C157.212 20.288 157.542 19.5149 157.542 18.5144C157.542 17.4912 157.201 16.6953 156.519 16.1268C155.836 15.5356 154.916 15.24 153.756 15.24H149.049V21.6524H153.858Z" fill="url(#paint7_linear_21_1031)"/>
<path d="M170.966 0.300537V25.5407H166.191V0.300537H170.966Z" fill="url(#paint8_linear_21_1031)"/>
<path d="M184.075 25.8477C182.256 25.8477 180.618 25.4498 179.163 24.6539C177.708 23.8353 176.56 22.687 175.718 21.209C174.9 19.7309 174.49 18.0255 174.49 16.0927C174.49 14.1599 174.911 12.4545 175.752 10.9765C176.616 9.49843 177.787 8.36148 179.265 7.56562C180.743 6.74702 182.392 6.33772 184.211 6.33772C186.03 6.33772 187.679 6.74702 189.157 7.56562C190.635 8.36148 191.795 9.49843 192.636 10.9765C193.5 12.4545 193.932 14.1599 193.932 16.0927C193.932 18.0255 193.489 19.7309 192.602 21.209C191.738 22.687 190.555 23.8353 189.055 24.6539C187.577 25.4498 185.917 25.8477 184.075 25.8477ZM184.075 21.6865C184.939 21.6865 185.746 21.4818 186.496 21.0725C187.27 20.6405 187.883 20.0038 188.338 19.1625C188.793 18.3211 189.02 17.2979 189.02 16.0927C189.02 14.2963 188.543 12.9206 187.588 11.9656C186.656 10.9878 185.507 10.4989 184.143 10.4989C182.779 10.4989 181.63 10.9878 180.698 11.9656C179.788 12.9206 179.334 14.2963 179.334 16.0927C179.334 17.8891 179.777 19.2762 180.664 20.2539C181.573 21.209 182.71 21.6865 184.075 21.6865Z" fill="url(#paint9_linear_21_1031)"/>
<path d="M204.836 6.33772C206.246 6.33772 207.485 6.62195 208.554 7.19043C209.623 7.73616 210.464 8.45244 211.078 9.33926V6.64469H215.887V25.6772C215.887 27.4281 215.535 28.9857 214.83 30.35C214.125 31.7371 213.068 32.8286 211.658 33.6244C210.248 34.443 208.543 34.8523 206.542 34.8523C203.859 34.8523 201.653 34.227 199.925 32.9764C198.219 31.7257 197.253 30.0203 197.026 27.8601H201.767C202.017 28.7242 202.551 29.4063 203.37 29.9066C204.211 30.4296 205.223 30.6911 206.405 30.6911C207.792 30.6911 208.918 30.2704 209.782 29.4291C210.646 28.6105 211.078 27.3598 211.078 25.6772V22.7438C210.464 23.6307 209.612 24.3697 208.52 24.9609C207.451 25.5521 206.223 25.8477 204.836 25.8477C203.245 25.8477 201.789 25.4384 200.47 24.6198C199.152 23.8012 198.106 22.6529 197.333 21.1749C196.582 19.6741 196.207 17.9573 196.207 16.0245C196.207 14.1144 196.582 12.4204 197.333 10.9423C198.106 9.46432 199.14 8.32737 200.436 7.53151C201.755 6.73565 203.222 6.33772 204.836 6.33772ZM211.078 16.0927C211.078 14.933 210.851 13.9439 210.396 13.1253C209.941 12.2839 209.327 11.6473 208.554 11.2152C207.781 10.7604 206.951 10.533 206.064 10.533C205.177 10.533 204.359 10.7491 203.608 11.1811C202.858 11.6131 202.244 12.2498 201.767 13.0912C201.312 13.9098 201.084 14.8876 201.084 16.0245C201.084 17.1614 201.312 18.162 201.767 19.026C202.244 19.8674 202.858 20.5154 203.608 20.9702C204.382 21.425 205.2 21.6524 206.064 21.6524C206.951 21.6524 207.781 21.4364 208.554 21.0043C209.327 20.5495 209.941 19.9129 210.396 19.0943C210.851 18.2529 211.078 17.2524 211.078 16.0927Z" fill="url(#paint10_linear_21_1031)"/>
<defs>
<linearGradient id="paint0_linear_21_1031" x1="0.112549" y1="17.5764" x2="215.887" y2="17.5764" gradientUnits="userSpaceOnUse">
<stop stop-color="white"/>
<stop offset="1" stop-color="#999999"/>
</linearGradient>
<linearGradient id="paint1_linear_21_1031" x1="0.112549" y1="17.5764" x2="215.887" y2="17.5764" gradientUnits="userSpaceOnUse">
<stop stop-color="white"/>
<stop offset="1" stop-color="#999999"/>
</linearGradient>
<linearGradient id="paint2_linear_21_1031" x1="0.112549" y1="17.5764" x2="215.887" y2="17.5764" gradientUnits="userSpaceOnUse">
<stop stop-color="white"/>
<stop offset="1" stop-color="#999999"/>
</linearGradient>
<linearGradient id="paint3_linear_21_1031" x1="0.112549" y1="17.5764" x2="215.887" y2="17.5764" gradientUnits="userSpaceOnUse">
<stop stop-color="white"/>
<stop offset="1" stop-color="#999999"/>
</linearGradient>
<linearGradient id="paint4_linear_21_1031" x1="0.112549" y1="17.5764" x2="215.887" y2="17.5764" gradientUnits="userSpaceOnUse">
<stop stop-color="white"/>
<stop offset="1" stop-color="#999999"/>
</linearGradient>
<linearGradient id="paint5_linear_21_1031" x1="0.112549" y1="17.5764" x2="215.887" y2="17.5764" gradientUnits="userSpaceOnUse">
<stop stop-color="white"/>
<stop offset="1" stop-color="#999999"/>
</linearGradient>
<linearGradient id="paint6_linear_21_1031" x1="0.112549" y1="17.5764" x2="215.887" y2="17.5764" gradientUnits="userSpaceOnUse">
<stop stop-color="white"/>
<stop offset="1" stop-color="#999999"/>
</linearGradient>
<linearGradient id="paint7_linear_21_1031" x1="0.112549" y1="17.5764" x2="215.887" y2="17.5764" gradientUnits="userSpaceOnUse">
<stop stop-color="white"/>
<stop offset="1" stop-color="#999999"/>
</linearGradient>
<linearGradient id="paint8_linear_21_1031" x1="0.112549" y1="17.5764" x2="215.887" y2="17.5764" gradientUnits="userSpaceOnUse">
<stop stop-color="white"/>
<stop offset="1" stop-color="#999999"/>
</linearGradient>
<linearGradient id="paint9_linear_21_1031" x1="0.112549" y1="17.5764" x2="215.887" y2="17.5764" gradientUnits="userSpaceOnUse">
<stop stop-color="white"/>
<stop offset="1" stop-color="#999999"/>
</linearGradient>
<linearGradient id="paint10_linear_21_1031" x1="0.112549" y1="17.5764" x2="215.887" y2="17.5764" gradientUnits="userSpaceOnUse">
<stop stop-color="white"/>
<stop offset="1" stop-color="#999999"/>
</linearGradient>
</defs>
</svg>
