<svg width="84" height="43" viewBox="0 0 84 43" fill="none" xmlns="http://www.w3.org/2000/svg">
<path d="M39 31.6035L42 34.6035M42 34.6035L45 31.6035M42 34.6035V27.1035M51 30.8535C51 32.0354 50.7672 33.2057 50.3149 34.2977C49.8626 35.3896 49.1997 36.3817 48.364 37.2175C47.5282 38.0532 46.5361 38.7161 45.4442 39.1684C44.3522 39.6207 43.1819 39.8535 42 39.8535C40.8181 39.8535 39.6478 39.6207 38.5558 39.1684C37.4639 38.7161 36.4718 38.0532 35.636 37.2175C34.8003 36.3817 34.1374 35.3896 33.6851 34.2977C33.2328 33.2057 33 32.0354 33 30.8535C33 28.4666 33.9482 26.1774 35.636 24.4896C37.3239 22.8017 39.6131 21.8535 42 21.8535C44.3869 21.8535 46.6761 22.8017 48.364 24.4896C50.0518 26.1774 51 28.4666 51 30.8535Z" stroke="white" stroke-width="1.5" stroke-linecap="round" stroke-linejoin="round"/>
<path d="M5.64316 12.2408C5.05316 12.2408 4.48316 12.1658 3.93316 12.0158C3.39316 11.8658 2.91316 11.6208 2.49316 11.2808C2.07316 10.9308 1.76316 10.4658 1.56316 9.88585H2.26816C2.48816 10.3258 2.77316 10.6808 3.12316 10.9508C3.48316 11.2108 3.87816 11.4008 4.30816 11.5208C4.73816 11.6408 5.16816 11.7008 5.59816 11.7008C6.09816 11.7008 6.57816 11.6258 7.03816 11.4758C7.50816 11.3158 7.88816 11.0758 8.17816 10.7558C8.47816 10.4258 8.62816 10.0008 8.62816 9.48085C8.62816 9.05085 8.53816 8.70585 8.35816 8.44585C8.18816 8.18585 7.95316 7.98085 7.65316 7.83085C7.35316 7.67085 7.01316 7.53585 6.63316 7.42585C6.43316 7.36585 6.23316 7.31085 6.03316 7.26085C5.84316 7.20085 5.65316 7.14585 5.46316 7.09585C5.28316 7.04585 5.10816 7.00085 4.93816 6.96085C4.56816 6.87085 4.19816 6.76585 3.82816 6.64585C3.46816 6.52585 3.13816 6.36585 2.83816 6.16585C2.54816 5.96585 2.31316 5.71085 2.13316 5.40085C1.95316 5.08085 1.86316 4.68085 1.86316 4.20085C1.86316 3.79085 1.92816 3.43085 2.05816 3.12085C2.18816 2.80085 2.36816 2.53585 2.59816 2.32585C2.83816 2.10585 3.10816 1.93085 3.40816 1.80085C3.71816 1.66085 4.04816 1.56085 4.39816 1.50085C4.74816 1.43085 5.10816 1.39585 5.47816 1.39585C6.02816 1.39585 6.54316 1.47085 7.02316 1.62085C7.50316 1.77085 7.91316 2.01585 8.25316 2.35585C8.60316 2.68585 8.83816 3.13085 8.95816 3.69085H8.28316C8.16316 3.26085 7.95316 2.92085 7.65316 2.67085C7.36316 2.41085 7.02316 2.22585 6.63316 2.11585C6.25316 1.99585 5.86316 1.93585 5.46316 1.93585C5.14316 1.93585 4.81316 1.97085 4.47316 2.04085C4.13316 2.11085 3.81816 2.23085 3.52816 2.40085C3.23816 2.56085 3.00316 2.78085 2.82316 3.06085C2.64316 3.33085 2.55316 3.67585 2.55316 4.09585C2.55316 4.54585 2.64816 4.91085 2.83816 5.19085C3.03816 5.46085 3.29816 5.67585 3.61816 5.83585C3.93816 5.99585 4.29316 6.13085 4.68316 6.24085C5.10316 6.35085 5.51816 6.46085 5.92816 6.57085C6.33816 6.68085 6.73316 6.79585 7.11316 6.91585C7.41316 7.00585 7.69316 7.12085 7.95316 7.26085C8.22316 7.40085 8.45816 7.57085 8.65816 7.77085C8.85816 7.97085 9.01316 8.20085 9.12316 8.46085C9.24316 8.71085 9.30316 8.99585 9.30316 9.31585C9.30316 9.85585 9.19816 10.3108 8.98816 10.6808C8.78816 11.0508 8.51316 11.3508 8.16316 11.5808C7.81316 11.8108 7.41816 11.9808 6.97816 12.0908C6.54816 12.1908 6.10316 12.2408 5.64316 12.2408ZM14.7568 12.2258C13.9368 12.2258 13.2518 12.0508 12.7018 11.7008C12.1518 11.3508 11.7368 10.8758 11.4568 10.2758C11.1868 9.66585 11.0518 8.97085 11.0518 8.19085C11.0518 7.41085 11.1918 6.71585 11.4718 6.10585C11.7618 5.48585 12.1868 5.00085 12.7468 4.65085C13.3068 4.29085 13.9968 4.11085 14.8168 4.11085C15.2668 4.11085 15.6818 4.18085 16.0618 4.32085C16.4418 4.46085 16.7718 4.67085 17.0518 4.95085C17.3418 5.23085 17.5618 5.58085 17.7118 6.00085H17.0218C16.8518 5.53085 16.5568 5.19085 16.1368 4.98085C15.7168 4.76085 15.2568 4.65085 14.7568 4.65085C14.0668 4.65085 13.4918 4.81085 13.0318 5.13085C12.5818 5.44085 12.2418 5.86585 12.0118 6.40585C11.7918 6.93585 11.6818 7.53085 11.6818 8.19085C11.6818 8.82085 11.7918 9.40085 12.0118 9.93085C12.2318 10.4608 12.5718 10.8858 13.0318 11.2058C13.5018 11.5258 14.0918 11.6858 14.8018 11.6858C15.3318 11.6858 15.8068 11.5808 16.2268 11.3708C16.6468 11.1608 16.9568 10.8208 17.1568 10.3508H17.8468C17.6768 10.7708 17.4318 11.1208 17.1118 11.4008C16.7918 11.6808 16.4318 11.8908 16.0318 12.0308C15.6318 12.1608 15.2068 12.2258 14.7568 12.2258ZM19.6136 12.1208V4.21585H20.2136V5.98585C20.4336 5.47585 20.7186 5.09085 21.0686 4.83085C21.4186 4.57085 21.7986 4.39585 22.2086 4.30585C22.6186 4.21585 23.0086 4.17085 23.3786 4.17085C23.3986 4.17085 23.4236 4.17085 23.4536 4.17085C23.4836 4.17085 23.5086 4.17085 23.5286 4.17085V4.71085H23.4236C22.6836 4.71085 22.0786 4.86585 21.6086 5.17585C21.1386 5.48585 20.7936 5.91585 20.5736 6.46585C20.3536 7.00585 20.2436 7.62585 20.2436 8.32585V12.1208H19.6136ZM28.2634 12.2258C27.4434 12.2258 26.7534 12.0508 26.1934 11.7008C25.6434 11.3508 25.2284 10.8708 24.9484 10.2608C24.6684 9.65085 24.5284 8.95585 24.5284 8.17585C24.5284 7.38585 24.6684 6.68585 24.9484 6.07585C25.2284 5.46585 25.6434 4.98585 26.1934 4.63585C26.7534 4.28585 27.4434 4.11085 28.2634 4.11085C29.0834 4.11085 29.7684 4.28585 30.3184 4.63585C30.8784 4.98585 31.2984 5.46585 31.5784 6.07585C31.8684 6.68585 32.0134 7.38585 32.0134 8.17585C32.0134 8.95585 31.8684 9.65085 31.5784 10.2608C31.2984 10.8708 30.8784 11.3508 30.3184 11.7008C29.7684 12.0508 29.0834 12.2258 28.2634 12.2258ZM28.2634 11.6858C28.9834 11.6858 29.5734 11.5308 30.0334 11.2208C30.4934 10.9108 30.8334 10.4908 31.0534 9.96085C31.2734 9.43085 31.3834 8.83585 31.3834 8.17585C31.3834 7.52585 31.2734 6.93585 31.0534 6.40585C30.8334 5.86585 30.4934 5.44085 30.0334 5.13085C29.5734 4.81085 28.9834 4.65085 28.2634 4.65085C27.5434 4.65085 26.9534 4.81085 26.4934 5.13085C26.0334 5.44085 25.6934 5.86585 25.4734 6.40585C25.2634 6.93585 25.1584 7.52585 25.1584 8.17585C25.1584 8.83585 25.2634 9.43085 25.4734 9.96085C25.6934 10.4908 26.0334 10.9108 26.4934 11.2208C26.9534 11.5308 27.5434 11.6858 28.2634 11.6858ZM33.9404 12.1208V1.51585H34.5704V12.1208H33.9404ZM36.8262 12.1208V1.51585H37.4562V12.1208H36.8262ZM44.0249 12.1208V1.51585H47.6699C48.7599 1.51585 49.6699 1.74085 50.3999 2.19085C51.1299 2.63085 51.6799 3.25085 52.0499 4.05085C52.4199 4.84085 52.6049 5.76585 52.6049 6.82585C52.6049 7.86585 52.4199 8.78585 52.0499 9.58585C51.6799 10.3758 51.1249 10.9958 50.3849 11.4458C49.6549 11.8958 48.7499 12.1208 47.6699 12.1208H44.0249ZM44.6549 11.5508H47.5499C48.5199 11.5508 49.3299 11.3508 49.9799 10.9508C50.6299 10.5508 51.1199 9.99585 51.4499 9.28585C51.7799 8.57585 51.9449 7.75585 51.9449 6.82585C51.9449 5.91585 51.7849 5.10585 51.4649 4.39585C51.1549 3.67585 50.6849 3.11085 50.0549 2.70085C49.4249 2.29085 48.6249 2.08585 47.6549 2.08585H44.6549V11.5508ZM57.9558 12.2258C57.1358 12.2258 56.4458 12.0508 55.8858 11.7008C55.3358 11.3508 54.9208 10.8708 54.6408 10.2608C54.3608 9.65085 54.2208 8.95585 54.2208 8.17585C54.2208 7.38585 54.3608 6.68585 54.6408 6.07585C54.9208 5.46585 55.3358 4.98585 55.8858 4.63585C56.4458 4.28585 57.1358 4.11085 57.9558 4.11085C58.7758 4.11085 59.4608 4.28585 60.0108 4.63585C60.5708 4.98585 60.9908 5.46585 61.2708 6.07585C61.5608 6.68585 61.7058 7.38585 61.7058 8.17585C61.7058 8.95585 61.5608 9.65085 61.2708 10.2608C60.9908 10.8708 60.5708 11.3508 60.0108 11.7008C59.4608 12.0508 58.7758 12.2258 57.9558 12.2258ZM57.9558 11.6858C58.6758 11.6858 59.2658 11.5308 59.7258 11.2208C60.1858 10.9108 60.5258 10.4908 60.7458 9.96085C60.9658 9.43085 61.0758 8.83585 61.0758 8.17585C61.0758 7.52585 60.9658 6.93585 60.7458 6.40585C60.5258 5.86585 60.1858 5.44085 59.7258 5.13085C59.2658 4.81085 58.6758 4.65085 57.9558 4.65085C57.2358 4.65085 56.6458 4.81085 56.1858 5.13085C55.7258 5.44085 55.3858 5.86585 55.1658 6.40585C54.9558 6.93585 54.8508 7.52585 54.8508 8.17585C54.8508 8.83585 54.9558 9.43085 55.1658 9.96085C55.3858 10.4908 55.7258 10.9108 56.1858 11.2208C56.6458 11.5308 57.2358 11.6858 57.9558 11.6858ZM65.1778 12.1208L62.7928 4.21585H63.4678L65.6878 11.5808L68.0128 4.21585H69.0478L71.3728 11.5808L73.5628 4.21585H74.2528L71.8378 12.1208H70.8928L68.5378 4.74085L66.1678 12.1208H65.1778ZM75.6292 12.1208V4.21585H76.2592V5.77585C76.4992 5.37585 76.7742 5.05585 77.0842 4.81585C77.3942 4.57585 77.7342 4.40085 78.1042 4.29085C78.4742 4.17085 78.8642 4.11085 79.2742 4.11085C80.0342 4.11085 80.6342 4.27585 81.0742 4.60585C81.5242 4.93585 81.8442 5.37585 82.0342 5.92585C82.2342 6.46585 82.3342 7.07085 82.3342 7.74085V12.1208H81.7042V8.11585C81.7042 7.67585 81.6742 7.25085 81.6142 6.84085C81.5542 6.43085 81.4392 6.06085 81.2692 5.73085C81.0992 5.40085 80.8492 5.14085 80.5192 4.95085C80.1992 4.75085 79.7792 4.65085 79.2592 4.65085C78.5992 4.65085 78.0442 4.81085 77.5942 5.13085C77.1542 5.45085 76.8192 5.87585 76.5892 6.40585C76.3692 6.92585 76.2592 7.49085 76.2592 8.10085V12.1208H75.6292Z" fill="white"/>
</svg>
